<?xml version="1.0" encoding="utf-8"?>
<!-- Generator: Adobe Illustrator 26.2.0, SVG Export Plug-In . SVG Version: 6.00 Build 0)  -->
<svg version="1.1" id="Layer_1" xmlns="http://www.w3.org/2000/svg" xmlns:xlink="http://www.w3.org/1999/xlink" x="0px" y="0px"
	 viewBox="0 0 62.2 62.7" style="enable-background:new 0 0 62.2 62.7;" xml:space="preserve">
<style type="text/css">
	.st0{fill:none;stroke:#535454;stroke-width:4;}
	.st1{fill:#535454;}
</style>
<g id="Group_307" transform="translate(-1809 -104)">
	<g id="Group_8" transform="translate(151 -4)">
		<g id="Ellipse_1" transform="translate(1658 108)">
			<circle class="st0" cx="31" cy="30.9" r="28.5"/>
		</g>
	</g>
	<path id="Path_88" class="st1" d="M1858.2,147.3l-4.5-21.4c-0.5-2.3-2.5-4-4.9-4h-0.2v-0.9c0-4.8-3.9-8.6-8.6-8.6
		c-4.8,0-8.6,3.9-8.6,8.6v0.9h-0.2c-2.4,0-4.4,1.7-4.9,4l-4.5,21.4c-0.9,4.3,1.8,8.4,6.1,9.3c0.5,0.1,1.1,0.2,1.6,0.2h21.1
		c4.4,0,7.9-3.5,7.9-7.9C1858.3,148.4,1858.3,147.9,1858.2,147.3L1858.2,147.3z M1835.5,121.1c0-2.4,1.9-4.3,4.3-4.3
		c2.4,0,4.3,1.9,4.3,4.3v0.9h-8.7V121.1z M1853.2,151.2c-0.7,0.8-1.7,1.3-2.8,1.3h-21.1c-2,0-3.6-1.6-3.6-3.6c0-0.3,0-0.5,0.1-0.7
		l4.5-21.4c0.1-0.3,0.4-0.6,0.7-0.6h0.2v3.3c0,1.2,1,2.2,2.1,2.2s2.2-1,2.2-2.1c0,0,0,0,0,0v-3.3h8.7v3.3c0,1.2,1,2.2,2.1,2.2
		s2.2-1,2.2-2.1c0,0,0,0,0,0v-3.3h0.2c0.3,0,0.6,0.2,0.7,0.6l4.5,21.4C1854.2,149.3,1853.9,150.4,1853.2,151.2z"/>
</g>
</svg>
