<?xml version="1.0" encoding="utf-8"?>
<!-- Generator: Adobe Illustrator 26.2.0, SVG Export Plug-In . SVG Version: 6.00 Build 0)  -->
<svg version="1.1" id="Layer_1" xmlns="http://www.w3.org/2000/svg" xmlns:xlink="http://www.w3.org/1999/xlink" x="0px" y="0px"
	 viewBox="0 0 61 61" style="enable-background:new 0 0 61 61;" xml:space="preserve">
<style type="text/css">
	.st0{fill:#535454;}
</style>
<path id="path7" class="st0" d="M30.5,0C13.7,0,0,13.7,0,30.5S13.7,61,30.5,61S61,47.3,61,30.5C61,13.7,47.3,0,30.5,0z M30.5,4.3
	c14.4,0,26.1,11.6,26.1,26.1c0,6.6-2.5,13-7,17.8c-3-3.5-6.8-6.1-11.2-7.6c5.6-4.5,6.4-12.8,1.9-18.3S27.6,15.9,22,20.4
	c-3,2.5-4.8,6.2-4.8,10.2c0,3.9,1.8,7.6,4.8,10c-4.2,1.4-8,4-11,7.4C1.4,37.2,2.3,20.7,13,11.1C17.8,6.7,24,4.3,30.5,4.3z
	 M30.3,21.8c4.8,0,8.7,4,8.6,8.8c0,4.6-3.7,8.4-8.3,8.6c-0.1,0-0.2,0-0.4,0c-0.1,0-0.2,0-0.3,0c-4.8-0.2-8.5-4.2-8.3-9
	C21.8,25.5,25.7,21.8,30.3,21.8L30.3,21.8z M29.9,43.5c0.1,0,0.2,0,0.3,0h0.1c0.1,0,0.2,0,0.3,0c6.1,0.1,11.9,2.9,15.8,7.6
	C37,58.6,23.6,58.5,14.2,51C18.2,46.3,23.9,43.6,29.9,43.5z"/>
</svg>
